# xmcd CD database file
#
# Track frame offsets:
#	150
#	18300
#	41572
#	65580
#	95832
#	120487
#	138279
#	163553
#	179437
#	196643
#	215015
#
# Disc length: 3215 seconds
#
# Revision: 0
# Processed by: cddbd v1.5.1PL2 Copyright (c) Steve Scherf et al.
# Submitted via: CDex 1.51
#
DISCID=970c8d0b
DTITLE=John Lee Hooker - Don't Look Back
DYEAR=1900
DGENRE=Blues
TTITLE0=Dimples
TTITLE1=The Healing Game
TTITLE2=Ain't No Big Thing
TTITLE3=Don't Look Back
TTITLE4=Blues Before Sunrise
TTITLE5=Spellbound
TTITLE6=Travellin' Blues
TTITLE7=I Love You Honey
TTITLE8=Frisco Blues
TTITLE9=Red House
TTITLE10=Rainy Day
EXTD=
EXTT0=
EXTT1=
EXTT2=
EXTT3=
EXTT4=
EXTT5=
EXTT6=
EXTT7=
EXTT8=
EXTT9=
EXTT10=
PLAYORDER=
